<svg xmlns="http://www.w3.org/2000/svg" height="1200" width="1600" version="1.1" xmlns:xlink="http://www.w3.org/1999/xlink" xmlns:svgjs="http://svgjs.com/svgjs"><rect fill="#f3ebe9" width="1600" height="1200"></rect><g><path d="M576.36 291.83H1168.54C1192.26 291.83 1211.49 311.06 1211.49 334.79V850.63C1211.49 874.35 1192.26 893.58 1168.54 893.58H576.36C552.63 893.58 533.4 874.35 533.4 850.63V334.79C533.4 311.06 552.63 291.83 576.36 291.83Z" fill="#231f20" opacity="1" stroke-width="4" stroke="none"></path><path d="M1212.64 745.3H533.4" stroke="#613945" stroke-width="4" stroke-linecap="round" stroke-linejoin="round" opacity="1" fill="none"></path><path d="M576.17 291.83H1168.35C1192.07 291.83 1211.3 311.06 1211.3 334.79V379.85H533.21V334.79C533.21 311.06 552.44 291.83 576.17 291.83Z" fill="#3c2c5b" opacity="1" stroke-width="4" stroke="none"></path><path d="M586.98 353.06C595.43 353.06 602.28 346.21 602.28 337.76 602.28 329.3 595.43 322.45 586.98 322.45 578.52 322.45 571.67 329.3 571.67 337.76 571.67 346.21 578.52 353.06 586.98 353.06Z" fill="#231f20" opacity="1" stroke-width="4" stroke="none"></path><path d="M636.72 353.06C645.18 353.06 652.03 346.21 652.03 337.76 652.03 329.3 645.18 322.45 636.72 322.45 628.27 322.45 621.42 329.3 621.42 337.76 621.42 346.21 628.27 353.06 636.72 353.06Z" fill="#231f20" opacity="1" stroke-width="4" stroke="none"></path><path d="M686.47 353.06C694.93 353.06 701.78 346.21 701.78 337.76 701.78 329.3 694.93 322.45 686.47 322.45 678.01 322.45 671.16 329.3 671.16 337.76 671.16 346.21 678.01 353.06 686.47 353.06Z" fill="#231f20" opacity="1" stroke-width="4" stroke="none"></path></g><g><path d="M704.28 444.71H851.8C861.18 444.71 868.82 452.35 868.82 461.73 868.82 471.11 861.18 478.75 851.8 478.75H704.28C694.9 478.75 687.26 471.11 687.26 461.73 687.26 452.35 694.9 444.71 704.28 444.71Z" fill="#61ccff" opacity="1" stroke-width="4" stroke="none"></path><path d="M704.28 515.06H790.52C799.9 515.06 807.54 522.7 807.54 532.08 807.54 541.46 799.9 549.1 790.52 549.1H704.28C694.9 549.1 687.26 541.46 687.26 532.08 687.26 522.7 694.9 515.06 704.28 515.06Z" fill="#afcedd" opacity="1" stroke-width="4" stroke="none"></path><path d="M847.26 515.06H874.49C883.87 515.06 891.51 522.7 891.51 532.08 891.51 541.46 883.87 549.1 874.49 549.1H847.26C837.88 549.1 830.24 541.46 830.24 532.08 830.24 522.7 837.88 515.06 847.26 515.06Z" fill="#3c2c5b" opacity="1" stroke-width="4" stroke="none"></path><path d="M704.28 585.42H725.47C734.85 585.42 742.49 593.06 742.49 602.44 742.49 611.82 734.85 619.46 725.47 619.46H704.28C694.9 619.46 687.26 611.82 687.26 602.44 687.26 593.06 694.9 585.42 704.28 585.42Z" fill="#afcedd" opacity="1" stroke-width="4" stroke="none"></path><path d="M782.2 585.42H909.29C918.67 585.42 926.31 593.06 926.31 602.44 926.31 611.82 918.67 619.46 909.29 619.46H782.2C772.82 619.46 765.18 611.82 765.18 602.44 765.18 593.06 772.82 585.42 782.2 585.42Z" fill="#3c2c5b" opacity="1" stroke-width="4" stroke="none"></path><path d="M966.02 585.42H1074.96C1084.34 585.42 1091.98 593.06 1091.98 602.44 1091.98 611.82 1084.34 619.46 1074.96 619.46H966.02C956.64 619.46 949 611.82 949 602.44 949 593.06 956.64 585.42 966.02 585.42Z" fill="#dae8ef" opacity="1" stroke-width="4" stroke="none"></path><path d="M704.28 655.77H772.37C781.75 655.77 789.39 663.41 789.39 672.79 789.39 682.17 781.75 689.81 772.37 689.81H704.28C694.9 689.81 687.26 682.17 687.26 672.79 687.26 663.41 694.9 655.77 704.28 655.77Z" fill="#030303" opacity="1" stroke-width="4" stroke="none"></path><path d="M829.1 655.77H844.23C853.61 655.77 861.25 663.41 861.25 672.79 861.25 682.17 853.61 689.81 844.23 689.81H829.1C819.72 689.81 812.08 682.17 812.08 672.79 812.08 663.41 819.72 655.77 829.1 655.77Z" fill="#afcedd" opacity="1" stroke-width="4" stroke="none"></path><path d="M900.97 655.77H990.99C1000.37 655.77 1008.01 663.41 1008.01 672.79 1008.01 682.17 1000.37 689.81 990.99 689.81H900.97C891.59 689.81 883.95 682.17 883.95 672.79 883.95 663.41 891.59 655.77 900.97 655.77Z" fill="#61ccff" opacity="1" stroke-width="4" stroke="none"></path></g><g><path d="M773.89 770.39H973.55C993.17 770.39 1009.1 786.32 1009.1 805.94V827.8C1009.1 847.42 993.17 863.35 973.55 863.35H773.89C754.27 863.35 738.34 847.42 738.34 827.8V805.94C738.34 786.32 754.27 770.39 773.89 770.39Z" fill="#ffffff" opacity="1" stroke-width="4" stroke="none"></path><path d="M788.09 834.95C798.12 834.95 806.25 826.82 806.25 816.79 806.25 806.75 798.12 798.62 788.09 798.62 778.06 798.62 769.92 806.75 769.92 816.79 769.92 826.82 778.06 834.95 788.09 834.95Z" stroke="#161616" stroke-width="4" stroke-linecap="round" stroke-linejoin="round" opacity="1" fill="none"></path><path d="M800.94 829.64L806.48 835.18" stroke="#161616" stroke-width="4" stroke-linecap="round" stroke-linejoin="round" opacity="1" fill="none"></path><path d="M829.17 832.55H972.26" stroke="#161616" stroke-width="4" stroke-linecap="round" stroke-linejoin="round" opacity="1" fill="none"></path></g><g><path d="M437.27 750.61L436.3 600.63 423.7 600.84C417.67 605.36 416.49 606.98 411.96 610.96 375.68 642.73 358.77 672.23 353.07 683.53 340.58 708.51 342.3 729.83 358.34 747.06 375.46 765.47 398.72 772.04 398.93 772.15L401.63 773.01 437.27 750.61Z" fill="#61ccff" opacity="1" stroke-width="4" stroke="none"></path><path d="M398.19 710.88L380 711.42" stroke="#353839" stroke-width="4" stroke-linecap="round" stroke-linejoin="round" opacity="1" fill="none"></path><path d="M541.28 566.82C544.51 568.65 547.95 569.83 551.62 570.37 553.77 570.69 555.92 570.91 558.18 570.91 565.18 570.91 571.1 568.86 574.87 565.2 582.73 557.45 584.67 547 581.98 526.87 583.06 526.01 588.44 521.06 588.12 517.18 587.9 514.06 582.63 512.01 579.4 511.04L579.07 508.89 578.96 508.03C577.46 498.34 576.27 489.94 574.01 482.83 570.89 473.25 562.81 471.53 553.23 465.71 546.66 461.73 541.71 459.14 534.06 457.85 530.4 457.2 527.39 456.45 523.73 456.45 512.85 456.45 509.52 460.33 501.33 465.5 483.89 476.37 482.7 497.15 482.81 511.58L483.35 514.38 485.72 518.79C485.72 521.59 490.35 525.04 490.35 529.78 490.46 539.14 477.43 549.91 477.54 559.71 477.54 563.59 477.64 567.35 477.75 570.37V570.58L541.17 575 541.28 566.82Z" fill="#c65a42" opacity="1" stroke-width="4" stroke="none"></path><path d="M541.28 566.82L531.8 562.72C531.37 562.4 530.83 562.29 530.19 562.29 529.22 562.29 528.25 562.72 527.71 563.59 527.17 564.34 526.96 565.42 527.28 566.28L530.3 575.21 541.28 572.2V566.82 566.82Z" fill="#222020" opacity="0.3" stroke-width="4" stroke="none"></path><path d="M432.21 321.64C434.47 321.64 436.84 321.75 439.1 322.18 458.59 325.52 472.91 342.43 472.91 362.24 472.91 370.53 470.43 378.28 466.12 384.74 465.58 385.6 466.34 386.68 467.31 386.46 470 385.93 472.8 385.6 475.6 385.6 477.86 385.6 480.23 385.71 482.49 386.14 501.98 389.48 516.3 406.38 516.3 426.19 516.3 435.78 512.96 444.61 507.36 451.61 506.82 452.36 507.47 453.33 508.33 453.11 513.18 451.82 518.45 451.18 523.73 451.18 527.39 451.18 531.05 451.5 534.71 452.14 542.36 453.44 549.68 456.13 556.35 460.11 565.18 465.39 570.57 472.39 574.01 482.83L573.69 483.05C571.97 483.69 570.24 484.12 568.41 484.02 565.72 484.02 562.92 483.58 560.23 482.83 559.91 482.72 559.58 483.05 559.69 483.37 560.55 485.63 561.74 490.48 559.48 494.35 557.32 498.01 552.48 500.17 545.16 500.7 544.62 500.7 544.29 501.24 544.4 501.78 545.8 507.17 545.48 511.58 543.43 514.92 541.6 517.61 538.69 519.55 535.46 520.19H535.36 535.25C535.14 520.19 525.99 514.81 517.27 514.81 511.67 514.81 507.47 516.96 504.89 521.27 500.47 528.38 504.24 536.45 508.12 541.94 510.81 545.6 513.93 549.05 517.48 552.07 517.59 552.17 517.59 552.39 517.38 552.39 514.25 553.36 491.86 560.03 484.75 560.03 480.34 560.03 477.32 559.82 477.32 559.82 477.32 559.82 477.11 538.18 477 529.02 477 524.29 476.89 520.19 476.89 517.39V511.9 511.47C476.68 500.06 476.46 480.79 485.07 467.86 485.61 467 484.86 465.93 483.89 466.14 481.2 466.68 478.4 467 475.49 467 473.23 467 470.86 466.79 468.6 466.46 449.11 463.13 434.79 446.22 434.79 426.41 434.79 417.9 437.37 410.04 441.9 403.48 442.33 402.83 441.79 401.86 440.93 402.08 438.13 402.72 435.11 403.05 432.1 403.05 429.84 403.05 427.47 402.83 425.21 402.51 405.72 399.17 391.4 382.26 391.4 362.45 391.61 339.84 409.81 321.64 432.21 321.64Z" fill="#2f2329" opacity="1" stroke-width="4" stroke="none"></path><path d="M680.07 639.07C681.04 635.51 681.58 633.04 681.69 632.5 683.52 632.39 699.99 630.88 710.86 625.82 714.63 624.1 716.89 621.73 717.76 618.93 718.4 616.24 717.97 613.44 716.68 611.07 720.02 607.09 721.52 603.43 721.09 599.98 720.77 597.61 719.59 595.35 717.65 593.84 723.14 584.37 716.57 578.98 715.71 578.34 715.71 577.26 715.28 569.08 708.71 566.82 707.31 566.39 705.91 566.17 704.51 566.28 694.93 566.28 677.7 572.31 668.66 576.29 669.73 573.17 675.01 556.26 670.49 552.39 669.84 551.85 668.98 551.53 668.12 551.53 659.61 551.53 641.2 577.48 628.17 601.81 626.77 604.5 625.37 607.09 623.86 610.1L625.05 620.33 674.79 644.66 680.07 639.07Z" fill="#c65a42" opacity="1" stroke-width="4" stroke="none"></path><path d="M613.96 726.5C625.91 726.6 637.43 722.08 646.15 714.11 663.27 695.7 675.55 655.43 680.07 639.07L623.86 610.1 623.76 610.32C620.1 617.53 616.97 624.42 614.17 630.56 612.77 633.57 611.48 636.48 610.3 638.85 600.61 620.33 589.3 606.98 575.41 598.15H575.3L558.83 597.18 496.16 648 559.8 700.12 560.88 700.98C578.86 717.88 596.84 726.5 613.96 726.5Z" fill="#61ccff" opacity="1" stroke-width="4" stroke="none"></path><path d="M532.89 747.92C533.11 747.82 551.3 741.35 546.03 715.84 552.38 712.39 557.23 706.79 559.81 700.12 559.81 700.12 535.26 672.23 548.18 641.33 555.93 622.05 565.19 607.52 575.1 598.36 575.21 598.26 575.21 598.04 575.1 598.04 572.52 596.75 552.81 586.74 541.83 584.26L541.18 572.2 477.55 565.09 475.61 579.95C473.02 580.17 445.35 583.18 422.96 601.49 422.74 601.59 405.73 614.73 408.85 641.43 407.34 642.94 384.63 665.55 398.08 701.84 397.22 703.56 384.84 728 403.04 750.29L403.68 751.05 532.89 747.92Z" fill="#3c2c5b" opacity="1" stroke-width="4" stroke="none"></path><path d="M532.88 747.92C533.1 747.82 551.29 741.35 546.02 715.84 552.37 712.39 557.21 706.79 559.8 700.12 559.8 700.12 552.15 691.29 548.06 679.44L546.99 679.77C546.99 680.09 548.39 706.9 518.78 711.21H518.56V711.42C518.56 745.34 477.64 748.78 477.21 748.78V749.21L532.88 747.92Z" fill="#362b4a" opacity="0.3" stroke-width="4" stroke="none"></path><path d="M522.01 1039.39C550.54 1039.39 573.9 1023.46 584.46 996.65 595.22 969.41 588.55 927.2 583.7 904.48 576.49 871.32 564.43 838.58 552.91 821.03 537.83 798.1 484.21 768.49 447.82 768.49 431.02 768.49 420.36 775.06 417.02 787.55 405.61 829.97 479.58 921.71 487.01 930.75 468.92 922.68 450.83 915.46 433.61 909.65L432.21 910.08 416.92 1001.49 417.99 1003.22C425.53 1006.34 433.18 1009.57 440.82 1012.8 461.49 1021.52 482.92 1030.57 499.39 1035.95 506.72 1038.21 514.36 1039.39 522.01 1039.39Z" fill="#ffc930" opacity="1" stroke-width="4" stroke="none"></path><path d="M581.34 894.57C574.02 864.43 563.26 836.86 552.92 821.14 537.84 798.21 484.22 768.6 447.83 768.6 431.03 768.6 420.37 775.16 417.03 787.65 410.79 810.91 430.39 848.81 447.94 876.48 460.64 883.38 471.09 886.5 484.33 890.59 498.87 894.79 513.19 899.74 527.29 905.45 558.52 918.15 569.82 935.38 585.33 959.18L585.76 959.82 581.34 894.57Z" fill="#000000" opacity="0.3" stroke-width="4" stroke="none"></path><path d="M660.04 920.2L662.63 918.05C665 907.17 667.69 895.65 670.38 884.34 675.76 861.3 680.82 839.55 683.19 823.29 685.45 807.57 682.33 792.28 674.58 780.01 665.53 765.9 650.35 756.11 630.54 751.58 612.67 747.6 583.38 746.74 561.95 746.74 542.79 746.74 527.71 747.38 527.6 747.38L403.03 750.29C394.09 786.04 397.32 814.9 412.61 836 425.96 854.3 448.79 865.83 475.17 867.55 478.72 867.76 482.49 867.87 486.37 867.87 528.25 867.87 577.35 854.3 581.98 852.9 576.49 874.33 572.07 896.19 568.95 918.05L573.9 926.12 660.04 920.2Z" fill="#ffc930" opacity="1" stroke-width="4" stroke="none"></path><path d="M435.97 856.46C448.03 862.38 461.6 866.69 475.06 867.44 509.73 869.7 552.69 860.33 571.97 855.49L582.19 852.8 628.06 838.05" stroke="#000000" stroke-width="4" stroke-linecap="round" stroke-linejoin="round" opacity="1" fill="none"></path><path d="M310.97 1022.38C319.04 1019.04 325.07 1012.91 331.64 1006.55 340.04 998.26 348.65 989.76 362.11 986.63 363.08 986.42 364.05 986.31 365.02 986.31 375.46 986.31 397.43 994.82 417.67 1003.11L417.99 1003.22 433.61 909.65C386.98 893.93 353.28 889.94 333.15 889.3L320.12 903.94 304.51 1017.75 310.97 1022.38Z" fill="#3c2c5b" opacity="1" stroke-width="4" stroke="none"></path><path d="M703.33 1022.49C699.45 1014.09 692.67 1009.14 684.81 1003.43 675.98 996.97 666.07 989.76 657.35 975.76 652.72 968.22 657.78 941.09 662.63 918.26V918.05H568.95C568.95 918.05 564.32 1001.6 567.12 1022.6L594.79 1033.69 699.13 1028.2 703.33 1022.49Z" fill="#3c2c5b" opacity="1" stroke-width="4" stroke="none"></path><path d="M610.3 639.28L615.79 669.43" stroke="#353839" stroke-width="4" stroke-linecap="round" stroke-linejoin="round" opacity="1" fill="none"></path><path d="M398.29 701.73L545.8 715.73" stroke="#362b4a" stroke-width="4" stroke-linecap="round" stroke-linejoin="round" opacity="1" fill="none"></path><path d="M409.06 641.43L546.88 644.66" stroke="#362b4a" stroke-width="4" stroke-linecap="round" stroke-linejoin="round" opacity="1" fill="none"></path><path d="M534.61 747.17L403.04 750.29" stroke="#362b4a" stroke-width="4" stroke-linecap="round" stroke-linejoin="round" opacity="1" fill="none"></path><path d="M715.51 578.34L696.55 583.29" stroke="#222020" stroke-width="4" stroke-linecap="round" stroke-linejoin="round" opacity="1" fill="none"></path><path d="M717.43 593.84L701.28 598.15" stroke="#222020" stroke-width="4" stroke-linecap="round" stroke-linejoin="round" opacity="1" fill="none"></path><path d="M716.46 611.07L703 614.52" stroke="#222020" stroke-width="4" stroke-linecap="round" stroke-linejoin="round" opacity="1" fill="none"></path><path d="M668.23 576.61L658.21 580.81" stroke="#222020" stroke-width="4" stroke-linecap="round" stroke-linejoin="round" opacity="1" fill="none"></path><path d="M487.02 930.75L521.15 967.36" stroke="#000000" stroke-width="4" stroke-linecap="round" stroke-linejoin="round" opacity="1" fill="none"></path><path d="M541.28 566.82L531.8 561.32" stroke="#222020" stroke-width="4" stroke-linecap="round" stroke-linejoin="round" opacity="1" fill="none"></path><path d="M527.71 535.81L519.74 530.96" stroke="#222020" stroke-width="4" stroke-linecap="round" stroke-linejoin="round" opacity="1" fill="none"></path><path d="M573.04 536.88C569.06 536.99 565.29 534.94 563.03 531.61" stroke="#222020" stroke-width="4" stroke-linecap="round" stroke-linejoin="round" opacity="1" fill="none"></path><path d="M567.87 514.38C566.39 514.38 565.18 513.17 565.18 511.69 565.18 510.2 566.39 509 567.87 509 569.36 509 570.57 510.2 570.57 511.69 570.57 513.17 569.36 514.38 567.87 514.38Z" fill="#231f20" opacity="1" stroke-width="4" stroke="none"></path><path d="M387.96 991.37V968.65" stroke="#362b4a" stroke-width="4" stroke-linecap="round" stroke-linejoin="round" opacity="1" fill="none"></path><path d="M368.68 986.31L364.91 965.53" stroke="#362b4a" stroke-width="4" stroke-linecap="round" stroke-linejoin="round" opacity="1" fill="none"></path><path d="M615.57 918.15C607.18 965.53 613.64 1022.6 613.64 1022.6" stroke="#362b4a" stroke-width="4" stroke-linecap="round" stroke-linejoin="round" opacity="1" fill="none"></path><path d="M655.63 958.1L635.17 959.07" stroke="#362b4a" stroke-width="4" stroke-linecap="round" stroke-linejoin="round" opacity="1" fill="none"></path><path d="M657.24 975.11L638.08 984.16" stroke="#362b4a" stroke-width="4" stroke-linecap="round" stroke-linejoin="round" opacity="1" fill="none"></path><path d="M706.77 1039.5V1039.29C706.77 1033.47 705.7 1027.77 703.33 1022.49L567.12 1022.6C567.77 1028.2 568.84 1033.8 570.24 1039.29L706.77 1039.5Z" fill="#61ccff" opacity="1" stroke-width="4" stroke="none"></path><path d="M297.83 1024.97C302.35 1024.97 306.77 1024.1 310.97 1022.38L333.15 889.3C330.99 889.19 329.16 889.3 327.12 889.3 322.92 889.19 318.72 889.41 314.52 889.94L291.26 1024.43C293.31 1024.75 295.57 1024.86 297.83 1024.97Z" fill="#61ccff" opacity="1" stroke-width="4" stroke="none"></path><path d="M568.95 918.05C570.67 905.34 573.37 891.13 576.49 876.48" stroke="#000000" stroke-width="4" stroke-linecap="round" stroke-linejoin="round" opacity="1" fill="none"></path><path d="M426.73 950.89C384.3 933.23 326.16 931.4 326.16 931.4" stroke="#362b4a" stroke-width="4" stroke-linecap="round" stroke-linejoin="round" opacity="1" fill="none"></path></g><g><path d="M1147.07 164.6H1264.24C1285.97 164.6 1303.55 182.18 1303.55 203.91V321.08C1303.55 352.27 1294.37 381.25 1278.73 405.59 1250.91 448.87 1198.36 477.55 1147.07 477.55 1109.02 477.55 1073.86 463.64 1046.52 440.65 1012.42 411.97 990.59 369.08 990.59 321.08 990.59 234.63 1060.62 164.6 1147.07 164.6Z" fill="#ffc930" opacity="1" stroke-width="4" stroke="none"></path><path d="M1236.13 198.6L1269.55 232.02" stroke="#c4c4c4" stroke-width="4" stroke-linecap="round" stroke-linejoin="round" opacity="1" fill="none"></path><path d="M1269.55 198.6L1236.13 232.02" stroke="#c4c4c4" stroke-width="4" stroke-linecap="round" stroke-linejoin="round" opacity="1" fill="none"></path></g><g><path d="M1144.42 331.67L1144.33 326.31C1141.69 327.06 1139.43 327.15 1136.8 327.15 1128.05 327.15 1120.71 323.39 1116.57 316.81 1111.3 308.34 1113.56 298.74 1115.82 289.42 1116.01 288.58 1116.19 287.73 1116.38 286.88 1117.13 282.74 1117.7 278.6 1117.98 274.46 1118.92 264.02 1120.15 251.04 1125.6 243.6 1134.16 232.12 1144.98 239.93 1163.14 239.93 1164.56 239.93 1170.48 238.8 1171.89 238.9 1192.78 240.03 1203.89 245.3 1203.23 265.34 1202.85 277.38 1207.08 294.32 1205.2 323.96L1204.45 333.08 1179.8 341.64 1144.42 331.67Z" fill="#f9b298" opacity="1" stroke-width="4" stroke="none"></path><path d="M1179.52 309.28L1179.33 309.09 1179.52 309C1179.7 308.9 1199.65 296.95 1195.98 285.94 1194.48 281.33 1190.62 279.07 1184.6 279.07 1180.36 279.26 1176.6 279.73 1172.18 281.52L1171.99 281.62 1171.89 281.05C1170.58 274.56 1171.61 270.14 1173.49 265.24 1173.78 264.59 1173.21 263.83 1172.46 263.93 1171.05 264.02 1169.64 264.11 1168.23 264.21 1159.57 264.21 1156.18 261.01 1154.86 258.38 1153.45 255.65 1153.74 252.17 1155.43 248.78 1155.81 248.03 1155.05 247.08 1154.21 247.37 1146.77 249.62 1140.28 250.85 1134.92 250.85 1126.17 250.85 1123.25 247.84 1123.25 247.84 1123.81 246.52 1124.85 244.83 1125.7 243.7 1134.26 232.22 1149.03 225.91 1167.19 225.91 1168.6 225.91 1170.01 225.91 1171.42 226.01 1192.31 227.14 1208.87 244.26 1208.21 264.3 1208.03 275.31 1206.8 295.54 1205.11 323.86 1205.11 323.77 1189.96 320.47 1179.52 309.28Z" fill="#000000" opacity="1" stroke-width="4" stroke="none"></path><path d="M1144.33 326.31C1148.75 324.71 1154.49 322.17 1158.53 319.72" stroke="#000000" stroke-width="4" stroke-linecap="round" stroke-linejoin="round" opacity="1" fill="none"></path><path d="M1174.34 295.73L1181.77 292.72" stroke="#000000" stroke-width="4" stroke-linecap="round" stroke-linejoin="round" opacity="1" fill="none"></path><path d="M1135.67 283.78L1135.11 285.85C1134.73 287.07 1135.11 288.3 1136.05 289.14L1136.23 289.33" stroke="#000000" stroke-width="4" stroke-linecap="round" stroke-linejoin="round" opacity="1" fill="none"></path><path d="M1133.6 298.65C1134.92 299.59 1139.34 299.77 1141.97 296.58" stroke="#000000" stroke-width="4" stroke-linecap="round" stroke-linejoin="round" opacity="1" fill="none"></path><path d="M1148.47 282.18C1149.82 282.18 1150.91 281.09 1150.91 279.73 1150.91 278.39 1149.82 277.29 1148.47 277.29 1147.11 277.29 1146.02 278.39 1146.02 279.73 1146.02 281.09 1147.11 282.18 1148.47 282.18Z" fill="#000000" opacity="1" stroke-width="4" stroke="none"></path><path d="M1127.48 279.07C1128.84 279.07 1129.93 277.98 1129.93 276.63 1129.93 275.28 1128.84 274.18 1127.48 274.18 1126.13 274.18 1125.04 275.28 1125.04 276.63 1125.04 277.98 1126.13 279.07 1127.48 279.07Z" fill="#000000" opacity="1" stroke-width="4" stroke="none"></path><path d="M996.23 386.53C994.72 382.39 993.78 380.22 992.56 377.12 990.58 372.41 987.95 366.01 981.17 347.95 978.07 341.74 975.15 336.38 972.52 331.67 967.15 321.98 963.96 316.15 965.74 314.26 966.21 313.79 966.78 313.51 967.53 313.51 970.17 313.51 971.58 315.02 978.07 321.79 979.01 322.83 981.74 325.65 983.43 327.34 983.62 327.53 983.9 327.34 983.81 327.06 982.77 324.8 980.89 320.85 980.05 319.06 976.38 311.35 972.99 304.39 975.43 299.3 976.09 297.99 977.32 297.05 978.73 296.76 978.82 292.53 980.8 289.99 984.09 289.99 985.6 290.08 987.01 290.46 988.33 291.12 989.45 290.37 990.77 289.99 992.09 289.99 999.9 289.99 1007.99 303.16 1015.14 314.74 1018.53 320.19 1021.63 325.37 1024.27 328 1024.55 314.83 1027.09 307.02 1031.04 307.02 1031.51 307.02 1031.89 307.11 1032.27 307.3 1035.28 308.43 1036.88 316.43 1038.66 325.74 1039.04 327.72 1039.51 329.79 1039.89 331.86 1040.64 335.53 1041.3 338.73 1041.86 341.55 1043.74 350.11 1044.97 355.85 1044.03 363.57 1047.04 371.19 1049.95 379.09 1052.59 385.96L1053.06 387.28 996.23 386.53Z" fill="#f9b298" opacity="1" stroke-width="4" stroke="none"></path><path d="M1024.27 328V337.03C1024.27 337.03 1014.58 346.91 1016.27 360.84" stroke="#000000" stroke-width="4" stroke-linecap="round" stroke-linejoin="round" opacity="1" fill="none"></path><path d="M988.98 291.31C999.15 304.95 1007.52 321.98 1007.52 321.98" stroke="#000000" stroke-width="4" stroke-linecap="round" stroke-linejoin="round" opacity="1" fill="none"></path><path d="M978.82 296.76C983.34 302.41 997.36 327.44 997.36 327.44" stroke="#000000" stroke-width="4" stroke-linecap="round" stroke-linejoin="round" opacity="1" fill="none"></path><path d="M983.71 327.34L987.76 333.74" stroke="#000000" stroke-width="4" stroke-linecap="round" stroke-linejoin="round" opacity="1" fill="none"></path><path d="M1144.8 332.89V326.12L1146.58 325.65C1151.38 324.24 1154.58 322.83 1159.19 320.76L1159.47 321.32 1153.64 336.94 1144.8 332.89Z" fill="#000000" opacity="0.3" stroke-width="4" stroke="none"></path><path d="M1239.08 496.42C1226.28 496.42 1211.6 494.73 1195.04 490.97L1194.48 490.12 1195.79 471.87H1131.15L1120.33 431.97C1118.36 434.98 1103.3 456.25 1078.09 465.56 1071.5 468.2 1064.44 469.51 1057.39 469.7 1022.67 469.7 1006.95 427.83 995.1 383.61L1046.1 369.21 1060.12 402.9C1061.34 401.2 1068.68 391.23 1081.57 375.05 1105.84 342.59 1141.5 339.39 1144.42 339.2V331.67H1204.64L1204.26 337.41C1224.49 340.42 1242.56 351.52 1254.51 368.08 1254.98 368.74 1305.03 435.73 1286.78 476.29 1281.23 489.08 1263.73 496.42 1239.08 496.42Z" fill="#61ccff" opacity="1" stroke-width="4" stroke="none"></path><path d="M1120.33 431.97L1116.76 416.54" stroke="#787878" stroke-width="4" stroke-linecap="round" stroke-linejoin="round" opacity="1" fill="none"></path><path d="M1109.32 444.67C1109.32 444.58 1111.87 437.05 1111.87 422.19 1111.87 413.53 1111.87 407.88 1114.88 407.88H1115.06L1120.8 431.59V431.69C1117.6 436.39 1113.84 440.82 1109.8 444.86L1109.32 444.67Z" fill="#787878" opacity="0.3" stroke-width="4" stroke="none"></path><path d="M1218 422.84L1226.75 444.67" stroke="#787878" stroke-width="4" stroke-linecap="round" stroke-linejoin="round" opacity="1" fill="none"></path><path d="M1122.59 517.69C1122.5 517.69 1122.5 517.69 1122.4 517.69 1121.56 517.59 1120.71 517.03 1120.43 516.18 1119.2 513.17 1122.03 506.11 1127.67 498.02 1126.64 498.68 1125.6 499.43 1124.57 500.19 1118.17 504.7 1110.17 510.35 1103.96 510.35 1101.42 510.44 1099.07 509.22 1097.56 507.24 1095.31 507.24 1093.61 506.49 1092.58 505.17 1091.45 503.67 1091.35 501.41 1092.2 498.87 1091.07 496.89 1091.07 494.35 1092.11 491.34 1094.18 485.32 1100.76 477.13 1110.08 468.95 1118.64 461.52 1127.86 455.31 1134.35 452.86 1151.29 446.46 1178.2 444.77 1197.77 444.58H1197.96L1195.04 490.97C1195.04 490.97 1183.37 488.24 1176.41 486.36 1175.47 486.83 1164.27 492.47 1146.49 495.29 1136.42 508.94 1125.6 517.69 1122.59 517.69Z" fill="#f9b298" opacity="1" stroke-width="4" stroke="none"></path><path d="M1211.51 444.96L1211.6 444.67C1214.71 437.52 1210.1 433.01 1210.19 426.14 1210.28 418.42 1211.41 416.54 1215.55 415.88L1226.75 444.67 1211.51 444.96Z" fill="#787878" opacity="0.3" stroke-width="4" stroke="none"></path><path d="M1092.39 498.02C1098.41 491.25 1111.87 479.3 1121.65 472.52" stroke="#000000" stroke-width="4" stroke-linecap="round" stroke-linejoin="round" opacity="1" fill="none"></path><path d="M1097.66 506.96C1102.17 502.44 1117.13 489.74 1129.18 481.46" stroke="#000000" stroke-width="4" stroke-linecap="round" stroke-linejoin="round" opacity="1" fill="none"></path><path d="M1128.05 497.46L1136.71 490.5" stroke="#000000" stroke-width="4" stroke-linecap="round" stroke-linejoin="round" opacity="1" fill="none"></path><path d="M1060.3 403.37L1059.36 414.66" stroke="#787878" stroke-width="4" stroke-linecap="round" stroke-linejoin="round" opacity="1" fill="none"></path><path d="M1197.58 444.58C1207.37 444.58 1224.49 444.67 1236.53 445.43" stroke="#787878" stroke-width="4" stroke-linecap="round" stroke-linejoin="round" opacity="1" fill="none"></path></g></svg>